<svg width="64" height="64" viewBox="0 0 64 64" fill="none" xmlns="http://www.w3.org/2000/svg">
  <circle cx="49" cy="52" r="8" fill="#34A853"/>
  <path d="M19 10C23.9706 10 28 14.0294 28 19V42C28 46.9706 23.9706 51 19 51C14.0294 51 10 46.9706 10 42V19C10 14.0294 14.0294 10 19 10Z" fill="#4285F4"/>
  <path d="M44.835 13.5078C49.1405 16.0061 50.6156 21.5143 48.1297 25.8415L35.9517 47.0508C33.4658 51.3781 27.9596 52.8855 23.6541 50.3872C19.3486 47.8889 17.8734 42.3807 20.3594 38.0535L32.5373 16.8442C35.0232 12.5169 40.5294 11.0095 44.835 13.5078Z" fill="#FBBC04"/>
</svg>
