<svg width="64" height="64" viewBox="0 0 64 64" fill="none" xmlns="http://www.w3.org/2000/svg">
  <path d="M38 14C40.0037 18.4678 43.2963 21.7604 47.7641 23.7641V30.1605C44.3295 29.6696 41.0951 28.2824 38.3536 26.1758V40.6471C38.3536 49.0603 31.5325 55.8814 23.1193 55.8814C14.7061 55.8814 7.88501 49.0603 7.88501 40.6471C7.88501 32.2339 14.7061 25.4128 23.1193 25.4128C24.3424 25.4128 25.5318 25.557 26.6714 25.8296V33.3752C25.6124 32.8458 24.4183 32.5486 23.1547 32.5486C18.6839 32.5486 15.059 36.1736 15.059 40.6444C15.059 45.1152 18.6839 48.7401 23.1547 48.7401C27.6255 48.7401 31.2504 45.1152 31.2504 40.6444V8H38V14Z" fill="#25F4EE"/>
  <path d="M40.75 14C42.7537 18.4678 46.0463 21.7604 50.5141 23.7641V30.1605C47.0795 29.6696 43.8451 28.2824 41.1036 26.1758V40.6471C41.1036 49.0603 34.2825 55.8814 25.8693 55.8814C22.6429 55.8814 19.6508 54.878 17.1868 53.1662C19.4472 55.4765 22.5977 56.8814 26.0777 56.8814C34.4909 56.8814 41.312 50.0603 41.312 41.6471V27.1758C44.0536 29.2824 47.2879 30.6696 50.7225 31.1605V24.7641C46.2547 22.7604 42.9621 19.4678 40.9584 15H34.2084V47.6444C34.2084 52.1152 30.5835 55.7401 26.1127 55.7401C24.2752 55.7401 22.5806 55.1285 21.2218 54.0985C22.6321 55.5397 24.5976 56.4313 26.7711 56.4313C31.2419 56.4313 34.8668 52.8064 34.8668 48.3356V15H40.75V14Z" fill="#FE2C55"/>
  <path d="M38.75 12C40.7537 16.4678 44.0463 19.7604 48.5141 21.7641V28.1605C45.0795 27.6696 41.8451 26.2824 39.1036 24.1758V38.6471C39.1036 47.0603 32.2825 53.8814 23.8693 53.8814C15.4561 53.8814 8.63501 47.0603 8.63501 38.6471C8.63501 30.2339 15.4561 23.4128 23.8693 23.4128C25.0924 23.4128 26.2818 23.557 27.4214 23.8296V31.3752C26.3624 30.8458 25.1683 30.5486 23.9047 30.5486C19.4339 30.5486 15.809 34.1736 15.809 38.6444C15.809 43.1152 19.4339 46.7401 23.9047 46.7401C28.3755 46.7401 32.0004 43.1152 32.0004 38.6444V6H38.75V12Z" fill="black"/>
</svg>
